<?xml version="1.0" encoding="utf-8"?>
<!-- Generator: Adobe Illustrator 24.1.0, SVG Export Plug-In . SVG Version: 6.00 Build 0)  -->
<svg version="1.1" id="Layer_1" xmlns="http://www.w3.org/2000/svg" xmlns:xlink="http://www.w3.org/1999/xlink" x="0px" y="0px"
	 viewBox="0 0 156 50" style="enable-background:new 0 0 156 50;" xml:space="preserve">
<style type="text/css">
	.st0{clip-path:url(#SVGID_2_);}
	.st1{fill:url(#SVGID_3_);}
	.st2{display:none;fill:#FFFFFF;}
	.st3{display:none;fill:#151517;}
	.st4{fill:#FFFFFF;}
	.st5{font-family:'AbdoMaster-SemiBold';}
	.st6{font-size:45.0483px;}
</style>
<g>
	<defs>
		<rect id="SVGID_1_" width="156" height="50"/>
	</defs>
	<clipPath id="SVGID_2_">
		<use xlink:href="#SVGID_1_"  style="overflow:visible;"/>
	</clipPath>
	<g class="st0">
		
			<linearGradient id="SVGID_3_" gradientUnits="userSpaceOnUse" x1="41.3083" y1="46.2387" x2="9.3083" y2="8.4887" gradientTransform="matrix(1 0 0 -1 0 52)">
			<stop  offset="0" style="stop-color:#2FB97D"/>
			<stop  offset="1" style="stop-color:#1AB69D"/>
		</linearGradient>
		<path class="st1" d="M25,0L25,0c13.8,0,25,11.2,25,25l0,0c0,13.8-11.2,25-25,25l0,0C11.2,50,0,38.8,0,25l0,0C0,11.2,11.2,0,25,0z"
			/>
		<path class="st2" d="M23.9,31.5c0.2,0.1,0.5,0.1,0.7,0.2c0.2,0,0.5,0,0.7,0c0.6,0,1.2-0.1,1.7-0.3c0.6-0.2,1.1-0.4,1.6-0.7
			c0.5-0.3,0.9-0.7,1.3-1.1c0.4-0.5,3.9-5.1,3.5-4.6l3.6-4.9c-0.6,0.8-2.9,14.1-3.6,14.8c-0.7,0.7-1.5,1.2-2.4,1.7
			c-0.9,0.5-1.8,0.8-2.7,1c-0.9,0.2-1.9,0.4-2.9,0.4c-1.7,0-3.3-0.3-4.8-1c-1.5-0.6-2.8-1.5-3.9-2.7c-1.1-1.1-2-2.5-2.6-4.1
			c-0.6-1.6-1-3.3-1-5.2c0-1.9,0.3-3.7,1-5.3c0.6-1.6,1.5-3,2.6-4.1c1.1-1.1,2.4-2,3.9-2.6c1.5-0.6,3.1-0.9,4.8-0.9c1,0,2,0.1,3,0.4
			s1.9,0.6,2.7,1.1c0.9,0.5,1.7,1,2.4,1.7c0.8,0.7,1.4,1.4,2,2.2L23.9,31.5z M27,18.6c-0.3-0.1-0.6-0.2-0.9-0.2c-0.3,0-0.6,0-0.9,0
			c-0.8,0-1.6,0.2-2.4,0.5c-0.7,0.3-1.4,0.8-1.9,1.3c-0.5,0.6-1,1.3-1.3,2.1c-0.3,0.8-0.5,1.7-0.5,2.8c0,0.2,0,0.5,0,0.8
			c0,0.3,0.1,0.6,0.1,0.9c0.1,0.3,0.1,0.6,0.2,0.8s0.2,0.5,0.3,0.7L27,18.6z"/>
		<path class="st3" d="M64.1,33V16.5h9.5v3.4h-5.6V23h5.4v3.4h-5.4v3.2h5.6V33H64.1z M81.2,33.3c-0.9,0-1.8-0.2-2.5-0.7
			c-0.8-0.5-1.4-1.1-1.8-1.9c-0.5-0.8-0.7-1.8-0.7-2.8c0-1,0.2-2,0.7-2.8s1-1.5,1.8-1.9c0.8-0.5,1.7-0.7,2.7-0.7
			c0.6,0,1.3,0.1,1.8,0.3c0.6,0.2,1.1,0.5,1.5,0.9v-7.9h3.7V33h-3.7v-1.1c-0.5,0.4-1,0.8-1.6,1C82.4,33.2,81.8,33.3,81.2,33.3z
			 M82.3,30.2c0.5,0,0.9-0.1,1.2-0.3c0.4-0.2,0.6-0.5,0.8-0.8c0.2-0.4,0.3-0.8,0.3-1.2c0-0.5-0.1-0.9-0.3-1.2
			c-0.2-0.4-0.5-0.6-0.8-0.8c-0.3-0.2-0.7-0.3-1.2-0.3c-0.4,0-0.8,0.1-1.2,0.3c-0.3,0.2-0.6,0.5-0.8,0.9C80.1,27,80,27.5,80,27.9
			c0,0.4,0.1,0.8,0.3,1.2c0.2,0.3,0.5,0.6,0.8,0.8C81.4,30.1,81.8,30.2,82.3,30.2z M96.9,33.3c-2,0-3.4-0.4-4.3-1.1
			c-0.9-0.8-1.3-2-1.3-3.7v-5.8h3.7v4.9c0,1,0.1,1.7,0.4,2.1c0.3,0.4,0.8,0.6,1.5,0.6c0.7,0,1.2-0.2,1.5-0.6
			c0.3-0.4,0.4-1.1,0.4-2.1v-4.9h3.6v5.8c0,1.7-0.4,2.9-1.3,3.7C100.3,32.9,98.9,33.3,96.9,33.3z M110,33l-4.9-16.5h1.7L111,31
			l4.8-14.5h1.2l4.9,14.5l4.1-14.5h1.7L122.7,33H121l-4.6-13.5L111.8,33H110z M134.4,33.3c-1.1,0-2-0.2-2.9-0.7
			c-0.8-0.5-1.5-1.1-2-1.9c-0.5-0.8-0.7-1.7-0.7-2.8c0-0.8,0.1-1.5,0.4-2.1c0.3-0.7,0.7-1.3,1.2-1.8c0.5-0.5,1.1-0.9,1.7-1.2
			c0.7-0.3,1.3-0.4,2.1-0.4c1,0,1.9,0.2,2.7,0.7c0.8,0.4,1.4,1,1.9,1.8c0.5,0.8,0.7,1.7,0.7,2.7c0,0.1,0,0.1,0,0.2c0,0,0,0.1,0,0.2
			h-9.2c0,0.8,0.2,1.5,0.5,2.1s0.9,1.1,1.5,1.5c0.6,0.3,1.4,0.5,2.2,0.5c0.8,0,1.5-0.2,2.1-0.5c0.6-0.3,1.1-0.8,1.6-1.4l1.1,0.6
			c-0.5,0.8-1.2,1.4-2,1.9C136.3,33.1,135.4,33.3,134.4,33.3z M130.3,26.9h7.7c-0.1-0.6-0.3-1.2-0.7-1.7c-0.4-0.5-0.8-0.9-1.4-1.2
			c-0.5-0.3-1.1-0.4-1.8-0.4c-0.7,0-1.3,0.1-1.8,0.4c-0.6,0.3-1,0.7-1.4,1.1C130.6,25.7,130.4,26.3,130.3,26.9z M148.6,33.3
			c-0.9,0-1.7-0.2-2.5-0.7c-0.7-0.4-1.3-1-1.8-1.8V33h-1.5V15.8h1.5v9.1c0.4-0.8,1-1.4,1.7-1.8c0.7-0.4,1.6-0.6,2.5-0.6
			c1,0,1.9,0.2,2.6,0.7c0.8,0.5,1.4,1.1,1.8,1.9c0.4,0.8,0.7,1.7,0.7,2.8c0,1.1-0.2,2-0.7,2.8c-0.4,0.8-1.1,1.5-1.8,1.9
			C150.5,33.1,149.6,33.3,148.6,33.3z M148.3,32c0.8,0,1.4-0.2,2-0.5c0.6-0.4,1.1-0.9,1.4-1.5c0.3-0.6,0.5-1.4,0.5-2.2
			c0-0.8-0.2-1.5-0.5-2.2c-0.3-0.6-0.8-1.1-1.4-1.5c-0.6-0.4-1.3-0.5-2-0.5c-0.8,0-1.4,0.2-2,0.5c-0.6,0.4-1.1,0.8-1.4,1.5
			c-0.3,0.6-0.5,1.3-0.5,2.2c0,0.8,0.2,1.5,0.5,2.2c0.3,0.6,0.8,1.1,1.4,1.5C146.8,31.9,147.5,32,148.3,32z"/>
	</g>
</g>
<g>
	<path class="st4" d="M57.3,28v7.2c0,0.2-0.1,0.4-0.2,0.6C57,35.9,56.8,36,56.6,36h-2.1c-0.2,0-0.3-0.1-0.5-0.2
		c-0.1-0.2-0.2-0.3-0.2-0.6V15.7c0-0.2,0.1-0.4,0.2-0.6c0.1-0.2,0.3-0.2,0.5-0.2H61c1,0,1.9,0.2,2.7,0.6c0.8,0.4,1.4,0.9,2,1.6
		s0.9,1.4,1.2,2.2c0.3,0.8,0.4,1.6,0.4,2.5c0,1.4-0.4,2.7-1.1,3.9c-0.8,1.2-1.9,2-3.5,2.3L68,36h-3.8c-0.2,0-0.4-0.1-0.6-0.3
		c-0.2-0.2-0.3-0.4-0.4-0.5L58.4,28H57.3z M63.1,23.3c0.5-0.5,0.7-1.1,0.7-1.7c0-0.7-0.2-1.3-0.7-1.9c-0.5-0.6-1.2-0.9-2.1-0.9h-3.7
		V24H61C62,24,62.7,23.8,63.1,23.3z"/>
	<path class="st4" d="M72.9,15.1c0.1,0.2,0.2,0.3,0.2,0.6v19.6c0,0.2-0.1,0.4-0.2,0.6c-0.1,0.2-0.3,0.2-0.5,0.2h-2.1
		c-0.2,0-0.3-0.1-0.5-0.2c-0.1-0.2-0.2-0.3-0.2-0.6V15.7c0-0.2,0.1-0.4,0.2-0.6c0.1-0.2,0.3-0.2,0.5-0.2h2.1
		C72.6,14.9,72.7,14.9,72.9,15.1z"/>
	<path class="st4" d="M84.8,35.2c0,0.2-0.1,0.4-0.2,0.6c-0.1,0.2-0.3,0.2-0.5,0.2H82c-0.2,0-0.3-0.1-0.5-0.2
		c-0.1-0.2-0.2-0.3-0.2-0.6v-7.6l-6.2-12.8h3.4c0.2,0,0.4,0.1,0.5,0.3c0.2,0.2,0.3,0.4,0.4,0.5L83,23l3.6-7.4
		c0.1-0.2,0.2-0.4,0.4-0.5c0.2-0.2,0.3-0.3,0.5-0.3h3.4l-6.2,12.8V35.2z"/>
	<path class="st4" d="M105.2,35.8c-0.1,0.2-0.3,0.2-0.5,0.2h-2.1c-0.2,0-0.3-0.1-0.5-0.2c-0.1-0.2-0.2-0.3-0.2-0.6v-6h-5.5v6
		c0,0.2-0.1,0.4-0.2,0.6c-0.1,0.2-0.3,0.2-0.5,0.2h-2.1c-0.2,0-0.3-0.1-0.5-0.2c-0.1-0.2-0.2-0.3-0.2-0.6V21.5
		c0-1.1,0.2-2.1,0.5-2.9c0.4-0.8,0.8-1.5,1.4-2.1c0.6-0.5,1.2-1,2-1.2s1.5-0.4,2.2-0.4c0.8,0,1.5,0.1,2.3,0.4c0.8,0.3,1.4,0.7,2,1.2
		c0.6,0.5,1.1,1.2,1.4,2.1c0.4,0.8,0.5,1.8,0.5,2.9v13.8C105.4,35.4,105.3,35.6,105.2,35.8z M101.9,25.2v-3.8c0-0.9-0.3-1.5-0.9-1.9
		c-0.6-0.4-1.2-0.7-1.9-0.7c-0.7,0-1.3,0.2-1.8,0.6s-0.8,1.1-0.8,2v3.8H101.9z"/>
	<path class="st4" d="M116.8,15.3c0.8,0.3,1.6,0.8,2.2,1.4s1.2,1.3,1.6,2.2s0.6,1.9,0.6,3.1v6.8c0,1.2-0.2,2.2-0.6,3.1
		s-0.9,1.6-1.6,2.2s-1.4,1-2.2,1.3c-0.8,0.3-1.7,0.4-2.5,0.4h-5.5c-0.2,0-0.3-0.1-0.5-0.2c-0.1-0.2-0.2-0.3-0.2-0.6V15.7
		c0-0.2,0.1-0.4,0.2-0.6c0.1-0.2,0.3-0.2,0.5-0.2h5.5C115.1,14.9,116,15,116.8,15.3z M111.5,32h2.7c0.4,0,0.9-0.1,1.3-0.2
		s0.8-0.3,1.1-0.6c0.3-0.3,0.6-0.6,0.8-1s0.3-0.9,0.3-1.4v-6.8c0-0.5-0.1-1-0.3-1.4c-0.2-0.4-0.5-0.7-0.8-1
		c-0.3-0.3-0.7-0.5-1.1-0.6c-0.4-0.1-0.8-0.2-1.3-0.2h-2.7V32z"/>
	<path class="st4" d="M136.1,35.8c-0.1,0.2-0.3,0.2-0.5,0.2h-2.1c-0.2,0-0.3-0.1-0.5-0.2c-0.1-0.2-0.2-0.3-0.2-0.6v-6h-5.5v6
		c0,0.2-0.1,0.4-0.2,0.6c-0.1,0.2-0.3,0.2-0.5,0.2h-2.1c-0.2,0-0.3-0.1-0.5-0.2c-0.1-0.2-0.2-0.3-0.2-0.6V21.5
		c0-1.1,0.2-2.1,0.5-2.9c0.4-0.8,0.8-1.5,1.4-2.1c0.6-0.5,1.2-1,2-1.2s1.5-0.4,2.2-0.4c0.8,0,1.5,0.1,2.3,0.4c0.8,0.3,1.4,0.7,2,1.2
		c0.6,0.5,1.1,1.2,1.4,2.1c0.4,0.8,0.5,1.8,0.5,2.9v13.8C136.3,35.4,136.2,35.6,136.1,35.8z M132.8,25.2v-3.8c0-0.9-0.3-1.5-0.9-1.9
		c-0.6-0.4-1.2-0.7-1.9-0.7c-0.7,0-1.3,0.2-1.8,0.6s-0.8,1.1-0.8,2v3.8H132.8z"/>
	<path class="st4" d="M152.2,15.1c0.1,0.2,0.2,0.3,0.2,0.6v19.6c0,0.2-0.1,0.4-0.2,0.6c-0.1,0.2-0.3,0.2-0.5,0.2h-2.1
		c-0.2,0-0.3-0.1-0.5-0.2c-0.1-0.2-0.2-0.3-0.2-0.6v-7.6h-6.5v7.6c0,0.2-0.1,0.4-0.2,0.6c-0.1,0.2-0.3,0.2-0.5,0.2h-2.1
		c-0.2,0-0.3-0.1-0.5-0.2c-0.1-0.2-0.2-0.3-0.2-0.6V15.7c0-0.2,0.1-0.4,0.2-0.6c0.1-0.2,0.3-0.2,0.5-0.2h2.1c0.2,0,0.3,0.1,0.5,0.2
		s0.2,0.3,0.2,0.6v8h6.5v-8c0-0.2,0.1-0.4,0.2-0.6c0.1-0.2,0.3-0.2,0.5-0.2h2.1C151.9,14.9,152.1,14.9,152.2,15.1z"/>
</g>
<text transform="matrix(1 0 0 1 10.8731 41.7332)" class="st4 st5 st6">R</text>
</svg>
