<?xml version="1.0" encoding="utf-8"?>
<!-- Generator: Adobe Illustrator 24.1.0, SVG Export Plug-In . SVG Version: 6.00 Build 0)  -->
<svg version="1.1" id="Layer_1" xmlns="http://www.w3.org/2000/svg" xmlns:xlink="http://www.w3.org/1999/xlink" x="0px" y="0px"
	 viewBox="0 0 360 420" style="enable-background:new 0 0 360 420;" xml:space="preserve">
<style type="text/css">
	.st0{fill:#FFFFFF;}
	.st1{fill:none;}
	.st2{display:none;fill:#181818;}
	.st3{display:none;fill:#89898B;}
	.st4{fill:#F8B81F;}
	.st5{fill:#89898B;}
</style>
<g>
	<path class="st0" d="M70,40c0-5.5,4.5-10,10-10h170c22.1,0,40,17.9,40,40v230c0,5.5-4.5,10-10,10H150c-44.2,0-80-35.8-80-80V40z"/>
	<rect x="135" y="69" class="st1" width="90" height="90"/>
	<path class="st2" d="M113.6,199v-16.5h4.7c1.1,0,2,0.2,2.8,0.6c0.8,0.4,1.4,0.9,1.8,1.6c0.4,0.7,0.7,1.6,0.7,2.5
		c0,0.9-0.2,1.6-0.5,2.3c-0.3,0.7-0.8,1.2-1.5,1.6c-0.6,0.4-1.4,0.7-2.3,0.8l5.5,6.9h-2.6l-5.1-6.7h-1.6v6.7H113.6z M115.6,190.5
		h2.1c0.8,0,1.5-0.1,2-0.4c0.6-0.3,1-0.6,1.3-1.1c0.3-0.5,0.5-1.1,0.5-1.7c0-1-0.3-1.8-1-2.3c-0.7-0.6-1.6-0.8-2.8-0.8h-2.1V190.5z
		 M131.3,199.3c-1,0-1.8-0.2-2.6-0.7c-0.8-0.5-1.4-1.1-1.8-1.9c-0.4-0.8-0.7-1.8-0.7-2.8c0-1,0.2-2,0.7-2.8c0.4-0.8,1-1.5,1.8-1.9
		c0.8-0.5,1.6-0.7,2.6-0.7c0.9,0,1.7,0.2,2.4,0.6c0.7,0.4,1.3,0.9,1.7,1.6v-1.9h1.9V199h-1.9v-1.9c-0.4,0.7-1,1.3-1.7,1.6
		C132.9,199.1,132.2,199.3,131.3,199.3z M131.8,197.6c0.7,0,1.3-0.2,1.9-0.5c0.5-0.3,1-0.8,1.3-1.3c0.3-0.6,0.5-1.2,0.5-1.9
		s-0.2-1.4-0.5-2c-0.3-0.6-0.7-1-1.3-1.3c-0.5-0.3-1.2-0.5-1.9-0.5c-0.7,0-1.3,0.2-1.9,0.5c-0.5,0.3-1,0.8-1.3,1.3
		c-0.3,0.6-0.5,1.2-0.5,2c0,0.7,0.2,1.4,0.5,1.9c0.3,0.6,0.7,1,1.3,1.3C130.5,197.5,131.1,197.6,131.8,197.6z M141.8,204.2l2.8-5.8
		l-4.9-9.7h2.2l3.8,7.8l3.4-7.8h2.2l-7.3,15.4H141.8z M163.2,199.3c-0.8,0-1.6-0.1-2.2-0.3c-0.6-0.2-1.2-0.5-1.7-0.8
		c-0.5-0.3-0.8-0.7-1.1-1c-0.3-0.3-0.5-0.6-0.7-0.8l1.1-1.6c0.2,0.2,0.4,0.4,0.6,0.7c0.3,0.3,0.6,0.6,1,0.9s0.8,0.5,1.3,0.7
		c0.5,0.2,1.1,0.3,1.7,0.3c0.6,0,1.2-0.1,1.6-0.3c0.5-0.2,0.9-0.5,1.2-0.9c0.3-0.4,0.4-0.9,0.4-1.6c0-0.5-0.1-1-0.3-1.3
		c-0.2-0.4-0.5-0.7-0.9-1s-0.8-0.5-1.3-0.7c-0.5-0.2-1.1-0.5-1.6-0.7c-0.4-0.2-0.8-0.4-1.3-0.6c-0.4-0.2-0.8-0.5-1.2-0.8
		c-0.4-0.3-0.6-0.7-0.9-1.2c-0.2-0.4-0.3-1-0.3-1.6c0-0.6,0.1-1.2,0.4-1.7c0.2-0.5,0.6-1,1-1.4c0.4-0.4,0.9-0.8,1.5-1
		c0.6-0.2,1.3-0.4,2-0.4c0.6,0,1.2,0.1,1.8,0.3c0.6,0.2,1.1,0.5,1.5,0.8c0.4,0.3,0.8,0.6,1.1,1l-0.9,1.5c-0.2-0.3-0.5-0.6-0.8-0.8
		c-0.3-0.3-0.7-0.5-1.2-0.6c-0.4-0.2-0.9-0.2-1.4-0.2c-0.6,0-1.1,0.1-1.6,0.4c-0.4,0.3-0.8,0.6-1,1c-0.2,0.4-0.3,0.8-0.3,1.3
		c0,0.4,0.1,0.8,0.3,1.1c0.2,0.3,0.4,0.5,0.7,0.7c0.3,0.2,0.6,0.4,1,0.5c0.4,0.2,0.7,0.3,1.1,0.4c0.7,0.3,1.3,0.5,1.9,0.8
		c0.6,0.3,1.1,0.6,1.6,1c0.5,0.4,0.8,0.8,1.1,1.3c0.3,0.5,0.4,1.2,0.4,1.9c0,1-0.2,1.9-0.7,2.6c-0.5,0.7-1.1,1.2-1.9,1.6
		C165.2,199.1,164.3,199.3,163.2,199.3z M176.5,199.3c-1,0-1.8-0.2-2.6-0.7c-0.8-0.5-1.4-1.1-1.8-1.9c-0.4-0.8-0.7-1.8-0.7-2.8
		c0-1,0.2-2,0.7-2.8c0.4-0.8,1-1.5,1.8-1.9c0.8-0.5,1.6-0.7,2.6-0.7c0.9,0,1.7,0.2,2.4,0.6c0.7,0.4,1.3,0.9,1.7,1.6v-1.9h1.9V199
		h-1.9v-1.9c-0.4,0.7-1,1.3-1.7,1.6C178.2,199.1,177.4,199.3,176.5,199.3z M177.1,197.6c0.7,0,1.3-0.2,1.9-0.5
		c0.5-0.3,1-0.8,1.3-1.3c0.3-0.6,0.5-1.2,0.5-1.9s-0.2-1.4-0.5-2c-0.3-0.6-0.7-1-1.3-1.3c-0.5-0.3-1.1-0.5-1.9-0.5
		c-0.7,0-1.3,0.2-1.8,0.5c-0.5,0.3-1,0.8-1.3,1.3c-0.3,0.6-0.5,1.2-0.5,2c0,0.7,0.2,1.4,0.5,1.9c0.3,0.6,0.7,1,1.3,1.3
		C175.7,197.5,176.4,197.6,177.1,197.6z M186.6,199v-10.2h1.9v1.3c0.3-0.5,0.8-0.9,1.4-1.2c0.6-0.3,1.3-0.5,2.1-0.5
		c0.8,0,1.5,0.2,2.1,0.5c0.6,0.3,1,0.8,1.3,1.4c0.3,0.6,0.5,1.4,0.5,2.2v6.4h-1.9v-6c0-1-0.2-1.7-0.7-2.2s-1.1-0.8-1.9-0.8
		c-0.6,0-1.1,0.1-1.5,0.3c-0.4,0.2-0.7,0.5-0.9,0.9c-0.2,0.4-0.3,0.8-0.3,1.3v6.5H186.6z M204.5,199.3c-0.8,0-1.5-0.1-2.2-0.4
		c-0.7-0.3-1.3-0.7-1.8-1.2c-0.5-0.5-0.9-1.1-1.2-1.7c-0.3-0.7-0.4-1.4-0.4-2.1c0-0.8,0.1-1.5,0.4-2.1c0.3-0.7,0.7-1.2,1.2-1.7
		c0.5-0.5,1.1-0.9,1.8-1.2s1.4-0.4,2.2-0.4c0.7,0,1.3,0.1,1.9,0.3c0.6,0.2,1.1,0.5,1.5,0.8l-0.7,1.3c-0.7-0.5-1.5-0.8-2.5-0.8
		c-0.8,0-1.4,0.2-2,0.5c-0.6,0.3-1,0.8-1.4,1.4c-0.3,0.6-0.5,1.2-0.5,1.9c0,0.7,0.2,1.4,0.5,1.9c0.3,0.6,0.8,1,1.4,1.4
		c0.6,0.3,1.3,0.5,2,0.5c0.5,0,0.9-0.1,1.3-0.2c0.4-0.1,0.8-0.3,1.1-0.6l0.7,1.3c-0.4,0.3-0.9,0.6-1.5,0.8
		C205.8,199.2,205.2,199.3,204.5,199.3z M211,199v-17.2h1.9v8.3c0.3-0.5,0.8-0.9,1.4-1.2s1.3-0.5,2.1-0.5c0.8,0,1.5,0.2,2.1,0.5
		c0.6,0.3,1,0.8,1.3,1.4c0.3,0.6,0.5,1.4,0.5,2.2v6.4h-1.9v-6c0-1-0.2-1.7-0.7-2.2c-0.5-0.5-1.1-0.8-1.9-0.8c-0.6,0-1.1,0.1-1.5,0.4
		c-0.4,0.2-0.7,0.5-0.9,0.9c-0.2,0.4-0.3,0.8-0.3,1.3v6.5H211z M229,199.3c-1.1,0-2-0.2-2.9-0.7c-0.9-0.5-1.5-1.1-2-1.9
		c-0.5-0.8-0.7-1.7-0.7-2.8c0-0.8,0.1-1.5,0.4-2.1s0.7-1.2,1.2-1.7c0.5-0.5,1.1-0.9,1.7-1.2s1.4-0.4,2.1-0.4c1.1,0,2,0.2,2.8,0.7
		c0.8,0.4,1.4,1.1,1.9,1.8c0.5,0.8,0.7,1.7,0.7,2.7c0,0.1,0,0.2,0,0.2c0,0.1,0,0.1,0,0.2h-8.8c0,0.7,0.2,1.3,0.5,1.9
		c0.3,0.5,0.8,1,1.3,1.3c0.6,0.3,1.2,0.5,2,0.5c0.7,0,1.3-0.1,1.9-0.4c0.6-0.3,1-0.7,1.4-1.3l1.4,0.7c-0.5,0.8-1.2,1.4-2,1.9
		C230.9,199.1,230,199.3,229,199.3z M225.4,192.7h6.8c-0.1-0.5-0.3-1-0.6-1.4c-0.3-0.4-0.7-0.7-1.2-0.9c-0.5-0.2-1-0.3-1.6-0.3
		c-0.6,0-1.1,0.1-1.6,0.3c-0.5,0.2-0.9,0.5-1.2,0.9C225.7,191.7,225.5,192.1,225.4,192.7z M236,199l7-8.7h-6.2v-1.5h9.6l-7,8.7h6.8
		v1.5H236z"/>
	<path class="st3" d="M107.4,224.6V235H106v-7.7l-3.4,7.7h-1l-3.5-7.8v7.8h-1.4v-10.4h1.5l3.8,8.6l3.8-8.6H107.4z M110.4,225.4
		c-0.3,0-0.5-0.1-0.7-0.3c-0.2-0.2-0.3-0.4-0.3-0.7s0.1-0.5,0.3-0.7c0.2-0.2,0.4-0.3,0.7-0.3c0.3,0,0.5,0.1,0.6,0.3
		c0.2,0.2,0.3,0.4,0.3,0.7s-0.1,0.5-0.3,0.7C110.9,225.4,110.7,225.4,110.4,225.4z M111.1,226.8v8.2h-1.4v-8.2H111.1z M117.4,226.6
		c1,0,1.8,0.3,2.4,0.9c0.6,0.6,0.9,1.5,0.9,2.6v4.8h-1.3v-4.6c0-0.8-0.2-1.4-0.6-1.9c-0.4-0.4-1-0.7-1.7-0.7c-0.7,0-1.3,0.2-1.7,0.7
		c-0.4,0.4-0.6,1.1-0.6,2v4.5h-1.4v-8.2h1.4v1.2c0.3-0.4,0.6-0.7,1.1-1C116.3,226.7,116.8,226.6,117.4,226.6z M123.7,225.4
		c-0.3,0-0.5-0.1-0.7-0.3c-0.2-0.2-0.3-0.4-0.3-0.7s0.1-0.5,0.3-0.7c0.2-0.2,0.4-0.3,0.7-0.3c0.3,0,0.5,0.1,0.6,0.3
		c0.2,0.2,0.3,0.4,0.3,0.7s-0.1,0.5-0.3,0.7C124.1,225.4,123.9,225.4,123.7,225.4z M124.3,226.8v8.2H123v-8.2H124.3z M136.6,226.6
		c0.6,0,1.2,0.1,1.7,0.4c0.5,0.3,0.9,0.7,1.2,1.2c0.3,0.5,0.4,1.2,0.4,1.9v4.8h-1.4v-4.6c0-0.8-0.2-1.4-0.6-1.9
		c-0.4-0.4-0.9-0.7-1.6-0.7c-0.7,0-1.3,0.2-1.7,0.7c-0.4,0.4-0.6,1.1-0.6,2v4.5h-1.4v-4.6c0-0.8-0.2-1.4-0.6-1.9
		c-0.4-0.4-0.9-0.7-1.6-0.7c-0.7,0-1.3,0.2-1.7,0.7c-0.4,0.4-0.6,1.1-0.6,2v4.5h-1.4v-8.2h1.4v1.2c0.3-0.4,0.6-0.8,1.1-1
		c0.5-0.2,1-0.3,1.5-0.3c0.7,0,1.3,0.2,1.8,0.5s0.9,0.8,1.2,1.4c0.2-0.6,0.6-1,1.1-1.4C135.3,226.8,135.9,226.6,136.6,226.6z
		 M149.2,233.7l2.6-7h1.5L150,235h-1.6l-3.2-8.2h1.5L149.2,233.7z M162,230.6c0,0.3,0,0.5,0,0.8h-6.6c0.1,0.8,0.3,1.4,0.8,1.9
		c0.5,0.5,1.1,0.7,1.8,0.7c0.6,0,1.1-0.1,1.5-0.4c0.4-0.3,0.7-0.6,0.8-1.1h1.5c-0.2,0.8-0.7,1.4-1.3,1.9c-0.7,0.5-1.5,0.7-2.5,0.7
		c-0.8,0-1.5-0.2-2.1-0.5c-0.6-0.4-1.1-0.8-1.4-1.5c-0.4-0.6-0.5-1.4-0.5-2.3s0.2-1.6,0.5-2.2s0.8-1.1,1.4-1.5
		c0.6-0.3,1.3-0.5,2.1-0.5c0.8,0,1.5,0.2,2.1,0.5c0.6,0.3,1.1,0.8,1.4,1.4C161.9,229.2,162,229.8,162,230.6z M160.6,230.3
		c0-0.5-0.1-1-0.3-1.3c-0.2-0.4-0.5-0.7-0.9-0.9c-0.4-0.2-0.8-0.3-1.3-0.3c-0.7,0-1.3,0.2-1.8,0.7c-0.5,0.4-0.8,1-0.8,1.8H160.6z
		 M167.8,226.6c1,0,1.8,0.3,2.4,0.9c0.6,0.6,0.9,1.5,0.9,2.6v4.8h-1.3v-4.6c0-0.8-0.2-1.4-0.6-1.9c-0.4-0.4-1-0.7-1.7-0.7
		c-0.7,0-1.3,0.2-1.7,0.7c-0.4,0.4-0.6,1.1-0.6,2v4.5h-1.4v-8.2h1.4v1.2c0.3-0.4,0.6-0.7,1.1-1C166.8,226.7,167.3,226.6,167.8,226.6
		z M174.1,225.4c-0.3,0-0.5-0.1-0.7-0.3c-0.2-0.2-0.3-0.4-0.3-0.7s0.1-0.5,0.3-0.7c0.2-0.2,0.4-0.3,0.7-0.3c0.3,0,0.5,0.1,0.6,0.3
		c0.2,0.2,0.3,0.4,0.3,0.7s-0.1,0.5-0.3,0.7C174.6,225.4,174.4,225.4,174.1,225.4z M174.8,226.8v8.2h-1.4v-8.2H174.8z M176.6,230.9
		c0-0.8,0.2-1.6,0.5-2.2c0.3-0.6,0.8-1.1,1.4-1.5c0.6-0.3,1.3-0.5,2-0.5c0.7,0,1.3,0.2,1.9,0.5s0.9,0.7,1.2,1.2v-1.5h1.4v8.2h-1.4
		v-1.5c-0.3,0.5-0.7,0.9-1.2,1.2c-0.5,0.3-1.1,0.5-1.9,0.5c-0.7,0-1.4-0.2-2-0.5c-0.6-0.4-1.1-0.9-1.4-1.5
		C176.8,232.4,176.6,231.7,176.6,230.9z M183.6,230.9c0-0.6-0.1-1.2-0.4-1.6c-0.3-0.5-0.6-0.8-1-1.1c-0.4-0.3-0.9-0.4-1.4-0.4
		c-0.5,0-1,0.1-1.4,0.4c-0.4,0.2-0.8,0.6-1,1.1c-0.3,0.5-0.4,1-0.4,1.6c0,0.6,0.1,1.2,0.4,1.6c0.3,0.5,0.6,0.8,1,1.1
		c0.4,0.2,0.9,0.4,1.4,0.4c0.5,0,1-0.1,1.4-0.4c0.4-0.3,0.8-0.6,1-1.1C183.4,232,183.6,231.5,183.6,230.9z M197.1,226.6
		c0.6,0,1.2,0.1,1.7,0.4c0.5,0.3,0.9,0.7,1.2,1.2s0.4,1.2,0.4,1.9v4.8h-1.3v-4.6c0-0.8-0.2-1.4-0.6-1.9c-0.4-0.4-0.9-0.7-1.6-0.7
		c-0.7,0-1.3,0.2-1.7,0.7c-0.4,0.4-0.6,1.1-0.6,2v4.5h-1.3v-4.6c0-0.8-0.2-1.4-0.6-1.9c-0.4-0.4-0.9-0.7-1.6-0.7
		c-0.7,0-1.3,0.2-1.7,0.7c-0.4,0.4-0.6,1.1-0.6,2v4.5h-1.4v-8.2h1.4v1.2c0.3-0.4,0.6-0.8,1.1-1c0.5-0.2,1-0.3,1.5-0.3
		c0.7,0,1.3,0.2,1.8,0.5s0.9,0.8,1.2,1.4c0.2-0.6,0.6-1,1.1-1.4C195.9,226.8,196.5,226.6,197.1,226.6z M210.7,226.6
		c1,0,1.8,0.3,2.4,0.9c0.6,0.6,0.9,1.5,0.9,2.6v4.8h-1.4v-4.6c0-0.8-0.2-1.4-0.6-1.9c-0.4-0.4-1-0.7-1.7-0.7c-0.7,0-1.3,0.2-1.7,0.7
		c-0.4,0.4-0.6,1.1-0.6,2v4.5h-1.4v-8.2h1.4v1.2c0.3-0.4,0.6-0.7,1.1-1C209.6,226.7,210.2,226.6,210.7,226.6z M219.9,235.1
		c-0.8,0-1.5-0.2-2.1-0.5c-0.6-0.4-1.1-0.8-1.5-1.5c-0.4-0.6-0.5-1.4-0.5-2.3c0-0.8,0.2-1.6,0.5-2.2c0.4-0.6,0.9-1.1,1.5-1.5
		c0.6-0.3,1.3-0.5,2.1-0.5s1.5,0.2,2.1,0.5c0.6,0.3,1.1,0.8,1.5,1.5c0.4,0.6,0.6,1.4,0.6,2.2s-0.2,1.6-0.6,2.3
		c-0.4,0.6-0.9,1.1-1.5,1.5S220.7,235.1,219.9,235.1z M219.9,233.9c0.5,0,0.9-0.1,1.4-0.3c0.4-0.2,0.8-0.6,1-1
		c0.3-0.5,0.4-1,0.4-1.7s-0.1-1.2-0.4-1.7c-0.3-0.5-0.6-0.8-1-1c-0.4-0.2-0.9-0.3-1.4-0.3c-0.5,0-1,0.1-1.4,0.3
		c-0.4,0.2-0.7,0.6-1,1c-0.3,0.5-0.4,1-0.4,1.7c0,0.7,0.1,1.2,0.4,1.7c0.3,0.5,0.6,0.8,1,1C219,233.8,219.4,233.9,219.9,233.9z
		 M228.8,235.1c-0.6,0-1.2-0.1-1.7-0.3c-0.5-0.2-0.9-0.5-1.2-0.9c-0.3-0.4-0.5-0.8-0.5-1.3h1.4c0,0.4,0.2,0.7,0.6,1
		c0.3,0.3,0.8,0.4,1.4,0.4c0.5,0,0.9-0.1,1.2-0.3c0.3-0.2,0.4-0.5,0.4-0.9c0-0.4-0.2-0.6-0.5-0.8c-0.3-0.2-0.8-0.4-1.5-0.5
		c-0.6-0.2-1.1-0.3-1.5-0.5c-0.4-0.2-0.7-0.4-1-0.7c-0.3-0.3-0.4-0.8-0.4-1.3c0-0.4,0.1-0.8,0.4-1.2c0.3-0.4,0.6-0.6,1.1-0.8
		c0.5-0.2,1-0.3,1.6-0.3c0.9,0,1.6,0.2,2.2,0.7c0.6,0.5,0.9,1.1,0.9,1.9h-1.4c0-0.4-0.2-0.8-0.5-1c-0.3-0.3-0.7-0.4-1.3-0.4
		c-0.5,0-0.9,0.1-1.2,0.3c-0.3,0.2-0.4,0.5-0.4,0.8c0,0.3,0.1,0.5,0.3,0.7c0.2,0.2,0.4,0.3,0.7,0.4c0.3,0.1,0.6,0.2,1.1,0.3
		c0.6,0.2,1.1,0.3,1.4,0.5c0.4,0.1,0.7,0.4,0.9,0.7c0.3,0.3,0.4,0.7,0.4,1.2c0,0.4-0.1,0.9-0.4,1.2s-0.6,0.6-1.1,0.9
		C229.9,235,229.4,235.1,228.8,235.1z M235.4,227.9v4.8c0,0.4,0.1,0.7,0.3,0.9c0.2,0.2,0.5,0.2,0.9,0.2h1v1.2h-1.2
		c-0.8,0-1.3-0.2-1.7-0.5c-0.4-0.4-0.6-0.9-0.6-1.7v-4.8H233v-1.1h1.1v-2.1h1.4v2.1h2.1v1.1H235.4z M240.6,228.1
		c0.2-0.5,0.6-0.8,1-1.1c0.4-0.3,1-0.4,1.6-0.4v1.4h-0.4c-1.5,0-2.3,0.8-2.3,2.5v4.5h-1.4v-8.2h1.4V228.1z M252.1,226.8v8.2h-1.4
		v-1.2c-0.3,0.4-0.6,0.8-1.1,1c-0.5,0.2-1,0.3-1.5,0.3c-0.6,0-1.2-0.1-1.7-0.4c-0.5-0.3-0.9-0.7-1.2-1.2c-0.3-0.5-0.4-1.2-0.4-1.9
		v-4.8h1.4v4.6c0,0.8,0.2,1.4,0.6,1.9c0.4,0.4,1,0.6,1.7,0.6c0.7,0,1.3-0.2,1.7-0.7c0.4-0.4,0.6-1.1,0.6-2v-4.5H252.1z M253.9,230.9
		c0-0.8,0.2-1.6,0.5-2.2c0.3-0.6,0.8-1.1,1.4-1.5c0.6-0.3,1.3-0.5,2-0.5c0.6,0,1.2,0.1,1.8,0.4c0.6,0.3,1,0.7,1.3,1.2v-4.4h1.4V235
		h-1.4v-1.5c-0.3,0.5-0.7,0.9-1.2,1.2c-0.5,0.3-1.1,0.5-1.9,0.5c-0.7,0-1.4-0.2-2-0.5c-0.6-0.4-1.1-0.9-1.4-1.5
		C254.1,232.4,253.9,231.7,253.9,230.9z M260.8,230.9c0-0.6-0.1-1.2-0.4-1.6c-0.3-0.5-0.6-0.8-1-1.1c-0.4-0.3-0.9-0.4-1.4-0.4
		c-0.5,0-1,0.1-1.4,0.4c-0.4,0.2-0.8,0.6-1,1.1c-0.3,0.5-0.4,1-0.4,1.6c0,0.6,0.1,1.2,0.4,1.6c0.3,0.5,0.6,0.8,1,1.1
		c0.4,0.2,0.9,0.4,1.4,0.4c0.5,0,1-0.1,1.4-0.4c0.4-0.3,0.8-0.6,1-1.1C260.7,232,260.8,231.5,260.8,230.9z M140.5,256.6
		c0,0.3,0,0.5,0,0.8h-6.6c0.1,0.8,0.3,1.4,0.8,1.9c0.5,0.5,1.1,0.7,1.8,0.7c0.6,0,1.1-0.1,1.5-0.4c0.4-0.3,0.7-0.7,0.8-1.1h1.5
		c-0.2,0.8-0.7,1.4-1.3,1.9c-0.7,0.5-1.5,0.7-2.5,0.7c-0.8,0-1.5-0.2-2.1-0.5c-0.6-0.3-1.1-0.8-1.4-1.5c-0.4-0.6-0.5-1.4-0.5-2.3
		s0.2-1.6,0.5-2.2c0.3-0.6,0.8-1.1,1.4-1.5c0.6-0.3,1.3-0.5,2.1-0.5c0.8,0,1.5,0.2,2.1,0.5c0.6,0.3,1.1,0.8,1.4,1.4
		C140.4,255.2,140.5,255.8,140.5,256.6z M139.1,256.3c0-0.5-0.1-1-0.3-1.3c-0.2-0.4-0.5-0.7-0.9-0.9c-0.4-0.2-0.8-0.3-1.3-0.3
		c-0.7,0-1.3,0.2-1.8,0.7c-0.5,0.4-0.8,1-0.8,1.8H139.1z M146.6,261l-1.9-3.1l-1.9,3.1h-1.4l2.7-4.1l-2.7-4.1h1.5l1.9,3l1.9-3h1.4
		l-2.6,4.1l2.7,4.2H146.6z M157,256.6c0,0.3,0,0.5,0,0.8h-6.6c0.1,0.8,0.3,1.4,0.8,1.9c0.5,0.5,1.1,0.7,1.8,0.7
		c0.6,0,1.1-0.1,1.5-0.4c0.4-0.3,0.7-0.7,0.8-1.1h1.5c-0.2,0.8-0.7,1.4-1.3,1.9c-0.7,0.5-1.5,0.7-2.5,0.7c-0.8,0-1.5-0.2-2.1-0.5
		c-0.6-0.3-1.1-0.8-1.4-1.5c-0.4-0.6-0.5-1.4-0.5-2.3s0.2-1.6,0.5-2.2s0.8-1.1,1.4-1.5c0.6-0.3,1.3-0.5,2.1-0.5
		c0.8,0,1.5,0.2,2.1,0.5s1.1,0.8,1.4,1.4C156.8,255.2,157,255.8,157,256.6z M155.6,256.3c0-0.5-0.1-1-0.3-1.3
		c-0.2-0.4-0.5-0.7-0.9-0.9c-0.4-0.2-0.8-0.3-1.3-0.3c-0.7,0-1.3,0.2-1.8,0.7c-0.5,0.4-0.8,1-0.8,1.8H155.6z M160.2,254.1
		c0.2-0.5,0.6-0.8,1-1.1c0.4-0.3,1-0.4,1.6-0.4v1.4h-0.4c-1.5,0-2.3,0.8-2.3,2.5v4.5h-1.4v-8.2h1.4V254.1z M167.9,256.9
		c0-0.9,0.2-1.6,0.5-2.2c0.3-0.6,0.8-1.1,1.4-1.5c0.6-0.3,1.3-0.5,2.1-0.5c1,0,1.8,0.2,2.5,0.7c0.7,0.5,1.1,1.2,1.3,2h-1.5
		c-0.1-0.5-0.4-0.9-0.8-1.2c-0.4-0.3-0.9-0.4-1.5-0.4c-0.8,0-1.4,0.3-1.9,0.8c-0.5,0.5-0.7,1.3-0.7,2.3c0,1,0.2,1.8,0.7,2.3
		c0.5,0.5,1.1,0.8,1.9,0.8c0.6,0,1.1-0.1,1.5-0.4c0.4-0.3,0.7-0.7,0.8-1.2h1.5c-0.2,0.8-0.7,1.5-1.3,2c-0.7,0.5-1.5,0.8-2.5,0.8
		c-0.8,0-1.5-0.2-2.1-0.5c-0.6-0.3-1.1-0.8-1.4-1.5S167.9,257.7,167.9,256.9z M178.2,251.4c-0.3,0-0.5-0.1-0.7-0.3
		c-0.2-0.2-0.3-0.4-0.3-0.7s0.1-0.5,0.3-0.7c0.2-0.2,0.4-0.3,0.7-0.3c0.3,0,0.5,0.1,0.6,0.3c0.2,0.2,0.3,0.4,0.3,0.7
		s-0.1,0.5-0.3,0.7C178.7,251.4,178.5,251.4,178.2,251.4z M178.9,252.8v8.2h-1.4v-8.2H178.9z M182.9,253.9v4.8
		c0,0.4,0.1,0.7,0.3,0.9c0.2,0.2,0.5,0.2,0.9,0.2h1v1.2h-1.2c-0.8,0-1.3-0.2-1.7-0.5s-0.6-0.9-0.6-1.7v-4.8h-1.1v-1.1h1.1v-2.1h1.4
		v2.1h2.1v1.1H182.9z M186.2,256.9c0-0.8,0.2-1.6,0.5-2.2c0.3-0.6,0.8-1.1,1.4-1.5c0.6-0.3,1.3-0.5,2-0.5c0.7,0,1.3,0.2,1.9,0.5
		s0.9,0.7,1.2,1.2v-1.5h1.4v8.2h-1.4v-1.5c-0.3,0.5-0.7,0.9-1.2,1.2c-0.5,0.3-1.1,0.5-1.9,0.5c-0.7,0-1.4-0.2-2-0.5
		c-0.6-0.4-1.1-0.9-1.4-1.5C186.3,258.4,186.2,257.7,186.2,256.9z M193.1,256.9c0-0.6-0.1-1.2-0.4-1.6c-0.3-0.5-0.6-0.8-1-1.1
		c-0.4-0.3-0.9-0.4-1.4-0.4s-1,0.1-1.4,0.4c-0.4,0.2-0.8,0.6-1,1.1c-0.3,0.5-0.4,1-0.4,1.6c0,0.6,0.1,1.2,0.4,1.7
		c0.3,0.5,0.6,0.8,1,1.1c0.4,0.2,0.9,0.4,1.4,0.4s1-0.1,1.4-0.4c0.4-0.3,0.8-0.6,1-1.1C193,258,193.1,257.5,193.1,256.9z
		 M198.5,253.9v4.8c0,0.4,0.1,0.7,0.3,0.9c0.2,0.2,0.5,0.2,0.9,0.2h1v1.2h-1.2c-0.8,0-1.3-0.2-1.7-0.5s-0.6-0.9-0.6-1.7v-4.8H196
		v-1.1h1.1v-2.1h1.4v2.1h2.1v1.1H198.5z M203,251.4c-0.3,0-0.5-0.1-0.7-0.3c-0.2-0.2-0.3-0.4-0.3-0.7s0.1-0.5,0.3-0.7
		c0.2-0.2,0.4-0.3,0.7-0.3c0.3,0,0.5,0.1,0.6,0.3c0.2,0.2,0.3,0.4,0.3,0.7s-0.1,0.5-0.3,0.7C203.4,251.4,203.2,251.4,203,251.4z
		 M203.6,252.8v8.2h-1.4v-8.2H203.6z M209.5,261.1c-0.8,0-1.5-0.2-2.1-0.5c-0.6-0.3-1.1-0.8-1.5-1.5c-0.4-0.6-0.5-1.4-0.5-2.3
		c0-0.8,0.2-1.6,0.5-2.2c0.4-0.6,0.9-1.1,1.5-1.5c0.6-0.3,1.3-0.5,2.1-0.5c0.8,0,1.5,0.2,2.1,0.5c0.6,0.3,1.1,0.8,1.5,1.5
		c0.4,0.6,0.6,1.4,0.6,2.2s-0.2,1.6-0.6,2.3c-0.4,0.6-0.9,1.1-1.5,1.5C211,261,210.3,261.1,209.5,261.1z M209.5,259.9
		c0.5,0,1-0.1,1.4-0.3c0.4-0.2,0.8-0.6,1-1c0.3-0.5,0.4-1,0.4-1.7s-0.1-1.2-0.4-1.7c-0.3-0.5-0.6-0.8-1-1c-0.4-0.2-0.9-0.3-1.4-0.3
		c-0.5,0-1,0.1-1.4,0.3c-0.4,0.2-0.7,0.6-1,1c-0.3,0.5-0.4,1-0.4,1.7c0,0.7,0.1,1.2,0.4,1.7c0.3,0.5,0.6,0.8,1,1
		C208.6,259.8,209,259.9,209.5,259.9z M219.6,252.6c1,0,1.8,0.3,2.4,0.9c0.6,0.6,0.9,1.5,0.9,2.6v4.8h-1.3v-4.6
		c0-0.8-0.2-1.4-0.6-1.9c-0.4-0.4-1-0.7-1.7-0.7c-0.7,0-1.3,0.2-1.7,0.7c-0.4,0.4-0.6,1.1-0.6,2v4.5h-1.4v-8.2h1.4v1.2
		c0.3-0.4,0.6-0.7,1.1-1C218.5,252.7,219,252.6,219.6,252.6z M225.6,261.1c-0.3,0-0.5-0.1-0.7-0.3c-0.2-0.2-0.3-0.4-0.3-0.7
		s0.1-0.5,0.3-0.7c0.2-0.2,0.4-0.3,0.7-0.3c0.3,0,0.5,0.1,0.6,0.3c0.2,0.2,0.3,0.4,0.3,0.7s-0.1,0.5-0.3,0.7
		C226,261,225.8,261.1,225.6,261.1z"/>
</g>
<g>
	<path class="st4" d="M131.3,192.2l0.2-0.1c0.9,0.8,3.6,2.5,4.1,4.2c0.2,0.6,0.2,1.1,0.2,1.6c0,0.9-0.3,2.2-0.8,2.7
		c-0.9,1-2,1.3-3,1.3c-0.7,0-1.3-0.1-1.8-0.4c-1-0.7-1.5-1.8-1.5-3.2c0-1,0.5-2,0.9-2.8c0.3-0.6,0.8-1.2,1.4-1.9
		C131.1,193.2,131.2,192.7,131.3,192.2z M130.6,190.3c-0.6-0.6-1.1-1-1.7-1.5c0.4-0.5,0.8-1,1.2-1.4c0.6,0.5,1.1,0.9,1.7,1.6
		C131.3,189.6,131,189.9,130.6,190.3z M129.7,198.1c0,1.1,1.2,2,2.4,2c0.8,0,1.6-0.3,2.3-0.8c0.5-0.3,0.6-0.7,0.6-1
		c0-0.5-0.4-1.1-0.8-1.6c-0.6-0.7-1.5-1.4-2.3-1.9C130.5,195.9,129.7,197,129.7,198.1z M133.4,190.1c-0.6-0.6-1.1-1-1.7-1.5
		c0.4-0.5,0.8-1,1.2-1.4c0.6,0.5,1.1,0.9,1.7,1.6C134.1,189.4,133.8,189.7,133.4,190.1z"/>
	<path class="st4" d="M139,197.8c0,1.3,0.6,2.2,2.4,2.2c1.1,0,2.1-0.4,3.2-0.9c0.2-0.1,0.3-0.2,0.3-0.4c0-0.8-0.5-1.8-1.4-2.8
		c-0.8-0.9-1.9-1.7-3-2.2c-0.4-0.2-0.5-0.4-0.5-0.5c0-0.4,0.4-1.1,0.7-1.7l0.1,0c1.2,0.7,2.5,1.8,3.5,3c0.9,1.1,1.4,2.2,1.4,3.5
		c0,0.9-0.2,1.8-0.6,2.6c-1.3,0.8-2.7,1.4-4.1,1.4c-1.7,0-2.8-0.9-2.8-3.1c0-0.2,0-0.6,0.1-1.1H139z"/>
	<path class="st4" d="M152.3,201.8h-0.2c-1.2,0-1.9-0.2-2.5-0.8c-0.9-0.9-0.9-1.9-0.9-4.1c0-2.8-0.2-5.7-0.4-8.8
		c0.5-0.5,0.9-1,1.4-1.4l0.1,0.1c0.2,3.2,0.2,7,0.2,10.6v0.8c0,0.9,0.5,1.4,1.1,1.6c0.4,0.1,0.7,0.2,0.9,0.2h0.2V201.8z"/>
	<path class="st4" d="M152.5,199.9c1.2,0,2.2,0,2.9-0.3c0.5-0.2,0.8-0.4,0.8-0.6c0-0.7-0.7-2.1-1.5-3.6c0.4-0.6,0.7-1.2,1.1-1.6h0.1
		c0.7,1.2,1.5,3,1.5,4.4c0,1.1-0.4,1.9-1,2.7c-0.7,0.7-1.7,0.9-3.9,0.9h-0.2c-0.8,0-1-0.6-1-1c0-0.4,0.2-0.9,1-0.9H152.5z
		 M154,207.6c-0.6-0.6-1.1-1-1.7-1.5c0.4-0.5,0.8-1,1.2-1.4c0.6,0.5,1.1,0.9,1.7,1.6C154.7,206.9,154.4,207.2,154,207.6z
		 M156.8,207.4c-0.6-0.6-1.1-1-1.7-1.5c0.4-0.5,0.8-1,1.2-1.4c0.6,0.5,1.1,0.9,1.7,1.6C157.5,206.7,157.2,207,156.8,207.4z"/>
	<path class="st4" d="M164.7,196.8c0.8,2,1.6,3.2,3.3,3.2h0.3v1.9H168c-0.6,0-1.1-0.1-1.5-0.5h-0.1c0,0.2,0,0.4,0,0.5
		c0,0.7-0.2,1.6-0.6,2.3c-1.2,2-2.4,2.9-3.5,2.9c-1.1,0-2.4-0.5-3.6-1.1l0.2-0.5c0.4,0.2,0.9,0.3,1.7,0.3c2,0,4.5-2.2,4.8-4.4
		c-0.1-0.2-0.2-0.4-0.4-0.7c-0.6-0.8-0.9-1.5-1.3-2.2c0.3-0.7,0.6-1.2,0.8-1.7L164.7,196.8z"/>
	<path class="st4" d="M168.6,199.9c0.5,0,1-0.1,1.6-0.4c0.5-0.3,0.8-0.8,0.8-1.6c0-2.3-0.2-4.9-0.4-7.6c-0.1-0.7-0.1-1.3-0.1-1.8
		c0-0.3,0.1-0.7,0.4-1c0.2-0.2,0.5-0.5,0.8-0.8l0.1,0.1c0,0.9,0.4,2.1,1.2,3.3c-0.3,0.2-0.6,0.5-0.9,0.7c0.1,1.7,0.2,3.4,0.2,5.1
		c0,1.6-0.2,2.8-0.6,3.7c-0.3,0.7-0.7,1.4-1.3,1.7c-0.6,0.3-1.3,0.4-1.8,0.4h-0.2c-0.8,0-1-0.6-1-1c0-0.4,0.2-0.9,1-0.9H168.6z"/>
	<path class="st4" d="M175.5,202c0.1-0.9,0.2-2,0.2-2.9v-1.4c0-2.7-0.3-6.5-0.5-9.1c0.4-0.5,1-1.1,1.4-1.5l0.1,0
		c0.3,3.2,0.4,6.9,0.4,10.3c0,0.9,0,1.8-0.1,2.4c0,0.8-0.4,1.4-1.3,2.3L175.5,202z"/>
	<path class="st4" d="M188.3,200.4c-1.5,0-2.7-0.5-2.7-1.7c0-0.4,0.1-1,0.5-1.7c0.6-1.3,2.1-2.6,4.7-4l-0.1-1.1
		c0.4-0.4,0.8-0.8,1.2-1.2h0.2c0.1,2.3,0.1,4.5,0.1,6.8c0,1,0.1,1.7,0.6,2.1c0.3,0.3,0.9,0.4,1.5,0.4h0.4v1.9h-0.3
		c-1.4,0-2.5-0.4-3-2C190.4,200.1,189.5,200.4,188.3,200.4z M190.9,194.6c-2.6,1.3-4,2.4-4,3.2c0,0.6,0.9,0.8,1.9,0.8
		c0.6,0,1.3-0.1,2.2-0.4L190.9,194.6z M189.2,189.4c-0.6-0.6-1.1-1-1.7-1.5c0.4-0.5,0.8-1,1.2-1.4c0.6,0.5,1.1,0.9,1.7,1.6
		C189.9,188.7,189.6,189.1,189.2,189.4z M192,189.2c-0.6-0.6-1.1-1-1.7-1.5c0.4-0.5,0.8-1,1.2-1.4c0.6,0.5,1.1,0.9,1.7,1.6
		C192.7,188.5,192.4,188.9,192,189.2z"/>
	<path class="st4" d="M194.9,199.9c1.2,0,2.2-0.4,2.4-1.3c0.1-0.6,0.2-1.1,0.4-1.7c0.3-0.3,0.6-0.5,1-0.8l0.1,0.1
		c-0.1,0.5-0.2,0.9-0.2,1.4c0,0.8,0.2,1.2,0.8,1.6c0.8-1.3,1.7-2.6,3-3.7c0.9-0.8,2-1.5,3.3-1.5c2.1,0,3.3,1.5,3.3,3.2
		c0,0.8-0.3,1.7-0.7,2.6h1.9v1.9h-0.4c-1.5,0-2.8-0.1-4.4-0.5c-0.9,0.3-1.9,0.5-3.4,0.5c-1.9,0-3.3-0.5-4.1-1.5h0
		c-0.8,1.2-2,1.5-3,1.5h-0.2c-0.8,0-1-0.6-1-1c0-0.4,0.2-0.9,1-0.9H194.9z M202.8,199.9c1.5,0,3-0.3,3.8-0.7
		c0.7-0.3,1.2-0.7,1.2-1.1c-0.2-1.3-1.4-2.2-2.7-2.2c-1.7,0-3.3,1.4-4.9,3.6C200.6,199.8,201.5,199.9,202.8,199.9z"/>
	<path class="st4" d="M210.4,199.9c1.1,0,2.3-0.5,2.5-1.3l0.4-1.6l1-0.7l0.1,0.1c-0.2,0.7-0.3,1.4-0.3,1.7c0,0.5,0.1,0.9,0.5,1.2
		c0.5,0.4,1,0.6,1.8,0.6h0.3v1.9h-0.3c-1.4,0-2.5-0.4-3-1.5h-0.1c-0.5,1-1.6,1.5-2.9,1.5h-0.3c-0.8,0-1-0.6-1-1c0-0.4,0.2-0.9,1-0.9
		H210.4z M212.9,191.1c0.6,0.4,1.2,1,1.8,1.6c-0.3,0.5-0.7,1-1.2,1.4c-0.6-0.5-1.1-1-1.7-1.5C212.1,192.1,212.5,191.6,212.9,191.1z"
		/>
	<path class="st4" d="M217,199.9c1.1,0,1.9-0.7,2.5-2.6c0.2-0.6,0.5-1.2,1.1-1.8c0.5-0.5,1.1-0.8,1.8-0.8c1.8,0,2.8,2.5,3.1,5
		c-0.3,1.3-0.8,1.9-1.5,1.9c-1.4,0-2.9-0.7-4.3-1.7h-0.1c-0.4,1.3-1.2,1.9-2.5,1.9h-0.2c-0.8,0-1-0.6-1-1c0-0.4,0.2-0.9,1-0.9H217z
		 M222.1,199.3c0.6,0.2,1.2,0.4,1.7,0.4c0.2,0,0.4,0,0.5-0.2c-0.4-2.2-1.4-3.2-2.3-3.2c-0.8,0-1.5,0.5-2,1.4
		C220.5,198.5,221.2,199,222.1,199.3z"/>
</g>
<g>
	<path class="st5" d="M109.4,244.9c-2.2,0-3.9-0.8-3.9-2.5c0-0.6,0.2-1.4,0.7-2.5c0.9-1.9,3.1-3.8,6.8-5.8l-0.1-1.6
		c0.5-0.6,1.1-1.2,1.7-1.7h0.2c0.1,3.3,0.1,6.6,0.1,9.9c0,1.5,0.2,2.4,0.8,3c0.5,0.4,1.3,0.6,2.2,0.6h0.5v2.7h-0.5
		c-2.1,0-3.6-0.6-4.4-2.9C112.4,244.5,111,244.9,109.4,244.9z M113.1,236.5c-3.8,1.9-5.7,3.5-5.7,4.6c0,0.8,1.3,1.2,2.7,1.2
		c0.9,0,1.9-0.2,3.1-0.6L113.1,236.5z M110.6,229c-0.9-0.8-1.6-1.5-2.5-2.2c0.6-0.8,1.1-1.5,1.7-2c0.9,0.7,1.6,1.4,2.4,2.3
		C111.6,227.9,111.2,228.4,110.6,229z M114.7,228.7c-0.9-0.8-1.6-1.5-2.5-2.2c0.6-0.8,1.1-1.5,1.7-2c0.9,0.7,1.6,1.4,2.4,2.3
		C115.7,227.6,115.3,228.1,114.7,228.7z"/>
	<path class="st5" d="M119,244.2c2.2,0,2.9-1.1,3.6-3.1c0.8-2.6,2.5-4,3.9-4c1,0,1.8,0.4,2.5,1.4c0.5,0.8,1,1.6,2.1,4
		c0.5,1,1.6,1.7,3.3,1.7h0.4v2.7h-0.4c-1.2,0-2.4-0.4-3.3-1.8h-0.1c-0.1,0.7-0.3,1.2-0.7,1.6c-0.4,0.5-0.9,0.7-1.4,0.7
		c-1.6,0-4.3-1.1-6-3h-0.1c-0.6,1.4-1.9,2.5-4.2,2.5h-0.3c-1.2,0-1.5-0.8-1.5-1.4c0-0.5,0.3-1.3,1.5-1.3H119z M126.2,243.8
		c1,0.6,2.2,0.9,2.9,0.9c0.4,0,0.8,0,0.8-0.5c0-0.8-0.5-2-1.1-2.8c-0.8-1.3-1.8-1.9-2.7-1.9c-1.2,0-2.1,0.8-2.4,1.9
		C123.9,242.2,125.2,243.3,126.2,243.8z"/>
	<path class="st5" d="M135.2,244.2c1.2,0,2.5-0.3,3.4-0.5c-0.7-1.1-0.7-2.2-0.7-3.2c0-1.6,0.5-3.5,1.9-5c1.1-1.2,2.4-2,3.2-2
		s1.7,0.8,2.5,2.4c0.5,1,0.8,2,0.8,3c0,1.9-0.6,3.5-1.4,4.9c0.8,0.2,1.9,0.4,3.3,0.4h0.7v2.7h-0.6c-2.1,0-4.2-0.4-6.9-1.4
		c-2.7,1-4.6,1.4-6.1,1.4h-0.4c-1.2,0-1.5-0.8-1.5-1.4c0-0.5,0.3-1.3,1.5-1.3H135.2z M140.2,231.1c-0.9-0.8-1.6-1.5-2.5-2.2
		c0.6-0.8,1.1-1.5,1.7-2c0.9,0.7,1.6,1.4,2.4,2.3C141.2,230,140.8,230.5,140.2,231.1z M145.1,240.5c0-0.8-0.3-1.5-0.5-1.9
		c-0.6-1.1-1.2-1.9-2.1-1.9c-1.7,0-3.3,2-3.6,3.5c0.3,1.2,1.1,2.3,2.9,2.8C143.2,242.7,145.1,241.3,145.1,240.5z M144.3,230.8
		c-0.9-0.8-1.6-1.5-2.5-2.2c0.6-0.8,1.1-1.5,1.7-2c0.9,0.7,1.6,1.4,2.4,2.3C145.3,229.7,144.9,230.3,144.3,230.8z"/>
	<path class="st5" d="M149.3,244.2c0.7,0,1.5-0.1,2.4-0.6c0.7-0.4,1.1-1.2,1.1-2.3c0-3.4-0.3-7.1-0.6-11c-0.1-1-0.2-1.9-0.2-2.6
		c0-0.5,0.2-1,0.6-1.4c0.3-0.4,0.7-0.8,1.2-1.2l0.1,0.1c0,1.4,0.6,3,1.7,4.8c-0.4,0.4-0.8,0.7-1.3,1.1c0.1,2.4,0.3,5,0.3,7.3
		c0,2.3-0.2,4-0.8,5.3c-0.4,1.1-1,2-1.9,2.5c-0.8,0.4-1.8,0.6-2.6,0.6h-0.3c-1.2,0-1.5-0.8-1.5-1.4c0-0.5,0.3-1.3,1.5-1.3H149.3z"/>
	<path class="st5" d="M159.3,247.3c0.2-1.3,0.2-2.8,0.2-4.2V241c0-3.9-0.4-9.5-0.8-13.2c0.6-0.8,1.4-1.7,2.1-2.2l0.2,0.1
		c0.4,4.6,0.6,10,0.6,14.9c0,1.3,0,2.6-0.1,3.5c-0.1,1.2-0.6,2.1-1.9,3.4L159.3,247.3z"/>
	<path class="st5" d="M192.8,246.9c0,0.7-0.1,1.7-0.3,2.6c-0.2,0.7-0.9,1.7-1.6,2.3c-2.1,1.8-5.3,3.6-8.9,3.6c-4.2,0-8-2.8-8-8
		c0-2.2,0.5-4.3,1.3-6l0.9,0.2c-0.4,1.2-0.7,2.4-0.7,3.5c0,4.4,2.8,7.2,6.6,7.2c2,0,4.2-0.4,6.8-2c1.4-1,2.6-2,2.6-2.6
		c0-0.3,0-0.6-0.2-0.8h-1.2c-4.2,0-6.5-1.4-6.5-4.3c0-1.4,0.5-2.5,1.1-3.4c0.8-1.2,1.9-2,3.3-2c1.9,0,4,2.7,4.6,7.1h1.9v2.7H192.8z
		 M185.1,234.5c-0.9-0.8-1.6-1.5-2.5-2.2c0.6-0.8,1.1-1.5,1.7-2c0.9,0.7,1.6,1.4,2.4,2.3C186.2,233.4,185.7,233.9,185.1,234.5z
		 M189.6,241.1c-0.7-0.8-1.5-1.2-2.2-1.2c-1.2,0-2.4,1-2.4,1.9c0,1.1,1,1.7,2.3,2.1c1.2,0.3,2.4,0.3,3.8,0.3
		C190.8,243,190.3,241.9,189.6,241.1z M189.2,234.2c-0.9-0.8-1.6-1.5-2.5-2.2c0.6-0.8,1.1-1.5,1.7-2c0.9,0.7,1.6,1.4,2.4,2.3
		C190.3,233.1,189.8,233.6,189.2,234.2z"/>
	<path class="st5" d="M194.7,244.2c1.8,0,3.2-0.1,4.2-0.4c0.7-0.3,1.2-0.6,1.2-0.9c0-1-1-3.1-2.1-5.2c0.5-0.9,1-1.7,1.6-2.4h0.1
		c1,1.7,2.1,4.4,2.1,6.5c0,1.6-0.6,2.8-1.5,3.9c-1,1-2.5,1.3-5.7,1.3h-0.3c-1.2,0-1.5-0.8-1.5-1.4c0-0.5,0.3-1.3,1.5-1.3H194.7z
		 M196.8,255.4c-0.9-0.8-1.6-1.5-2.5-2.2c0.6-0.8,1.1-1.5,1.7-2c0.9,0.7,1.6,1.4,2.4,2.3C197.8,254.3,197.4,254.8,196.8,255.4z
		 M200.9,255.1c-0.9-0.8-1.6-1.5-2.5-2.2c0.6-0.8,1.1-1.5,1.7-2c0.9,0.7,1.6,1.4,2.4,2.3C201.9,254,201.5,254.5,200.9,255.1z"/>
	<path class="st5" d="M212.5,239.6c1.2,2.9,2.3,4.6,4.8,4.6h0.4v2.7h-0.4c-0.9,0-1.6-0.2-2.1-0.7h-0.1c0,0.3,0,0.5,0,0.7
		c0,1-0.3,2.3-0.8,3.3c-1.7,2.9-3.5,4.2-5.1,4.2c-1.6,0-3.5-0.7-5.3-1.7l0.3-0.7c0.6,0.3,1.4,0.5,2.4,0.5c2.8,0,6.6-3.2,7-6.4
		c-0.1-0.3-0.3-0.6-0.6-1c-0.8-1.2-1.4-2.1-1.8-3.2c0.4-1,0.8-1.8,1.2-2.5L212.5,239.6z"/>
	<path class="st5" d="M219.5,244.2l1.1-1.9c0.3-1.1,0.3-2,0.3-4.2c0-2.9-0.3-7.3-0.5-9.7c-0.1-0.7-0.1-1.4-0.1-2.1
		c0-1,0.6-1.6,1.7-2.4l0.1,0.1c0,1.2,0.6,2.8,1.8,4.6l-1.4,1.1c0.1,2.3,0.2,4.6,0.2,6.9c0,1.9-0.3,3.1-0.7,4.2h0.1
		c1.6-1.6,3.3-3.1,4.7-4c1.2-0.7,2.6-1.3,4-1.3c1.2,0,2.4,0.5,3.2,1.2c1,0.9,1.6,2.2,1.6,3.7c0,0.4-0.3,1.4-0.5,2.2
		c-1.1,3.7-8.5,4.2-12.6,4.2h-4.8c-1.2,0-1.5-0.8-1.5-1.4c0-0.5,0.3-1.3,1.5-1.3H219.5z M222.9,244.2c4.6,0,7.5-0.5,9.8-1.6
		c0.6-0.3,1-0.7,1.3-1c0-1.5-1.8-3.3-4.1-3.3c-2.7,0-5.8,2.2-8.8,5.8H222.9z"/>
</g>
</svg>
